#!OML:ASF H:\Dans Jumps\Project 1\Capture day 1\Session 1\subject.ASF
:FULLY-SPECIFIED
:DEGREES
507
root 0.623001 17.7461 6.90462 7.64992 -0.973114 -1.29166
lowerback -1.07174 0.0889695 -0.500071
upperback 2.99334 0.0828841 1.56209
thorax 3.67625 0.00150796 1.89246
lowerneck -13.9482 -0.0994757 -1.54568
upperneck 29.4264 0.111977 0.523911
head 11.959 -0.0555939 0.479091
rclavicle 2.78299e-015 -4.57205e-015
rhumerus -26.3842 -16.3062 -79.6675
rradius 23.6922
rwrist 33.9048
rhand -19.8597 -25.4753
rfingers 7.12502
rthumb 6.47524 -55.3563
lclavicle 2.78299e-015 -4.57205e-015
lhumerus -23.2346 7.43567 84.8087
lradius 15.9312
lwrist -1.22086
lhand -25.2836 -5.12104
lfingers 7.12502
lthumb 1.23771 24.8551
rfemur -13.7868 -2.65022 19.6249
rtibia 20.1795
rfoot -12.5107 0.506853
rtoes 13.3251
lfemur -13.5095 6.94006 -18.087
ltibia 17.4347
lfoot -9.18772 4.0332
ltoes -0.513927
508
root 0.622538 17.7459 6.9036 7.63978 -0.987386 -1.29587
lowerback -1.08439 0.0825196 -0.50633
upperback 2.99366 0.0744648 1.56042
thorax 3.68406 -0.00289848 1.89396
lowerneck -13.9571 -0.0945011 -1.54242
upperneck 29.4053 0.120545 0.516333
head 11.9524 -0.0523508 0.476815
rclavicle -1.19271e-015 -1.39149e-015
rhumerus -26.4689 -16.409 -79.5843
rradius 23.6009
rwrist 34.0297
rhand -19.8279 -25.4786
rfingers 7.12502
rthumb 6.50599 -55.3586
lclavicle -1.19271e-015 -1.39149e-015
lhumerus -23.2606 7.48619 84.771
lradius 15.873
lwrist -1.30134
lhand -25.2641 -5.15369
lfingers 7.12502
lthumb 1.25654 24.8224
rfemur -13.7863 -2.64845 19.6317
rtibia 20.1893
rfoot -12.5132 0.507729
rtoes 13.2887
lfemur -13.5024 6.95125 -18.0807
ltibia 17.4405
lfoot -9.18868 4.03519
ltoes -0.502095
509
root 0.622131 17.7458 6.90254 7.63001 -1.00062 -1.30098
lowerback -1.09919 0.0748958 -0.512789
upperback 2.99407 0.0644268 1.56037
thorax 3.69323 -0.00815303 1.89717
lowerneck -13.9684 -0.0874767 -1.53336
upperneck 29.3911 0.132883 0.501063
head 11.949 -0.0477974 0.471225
rclavicle -1.98785e-016 -1.98785e-016
rhumerus -26.5501 -16.5023 -79.5015
rradius 23.5145
rwrist 34.1457
rhand -19.7945 -25.4844
rfingers 7.12502
rthumb 6.53824 -55.3635
lclavicle -1.98785e-016 -1.98785e-016
lhumerus -23.2836 7.52351 84.741
lradius 15.8276
lwrist -1.36833
lhand -25.2541 -5.20095
lfingers 7.12502
lthumb 1.26615 24.775
rfemur -13.7851 -2.64831 19.6395
rtibia 20.1973
rfoot -12.5153 0.509159
rtoes 13.2543
lfemur -13.4955 6.96196 -18.0736
ltibia 17.4453
lfoot -9.18882 4.03592
ltoes -0.484401
510
root 0.621808 17.7457 6.90156 7.61837 -1.00758 -1.30378
lowerback -1.11026 0.0652791 -0.521879
upperback 2.99385 0.0518047 1.56105
thorax 3.69975 -0.0147628 1.90247
lowerneck -13.9836 -0.0811756 -1.52393
upperneck 29.3839 0.144892 0.483398
head 11.9492 -0.0436881 0.464665
rclavicle -1.93815e-015 2.18663e-015
rhumerus -26.6283 -16.5985 -79.4166
rradius 23.4312
rwrist 34.2618
rhand -19.7618 -25.4933
rfingers 7.12502
rthumb 6.56973 -55.3714
lclavicle -1.93815e-015 2.18663e-015
lhumerus -23.301 7.55381 84.7157
lradius 15.7898
lwrist -1.44212
lhand -25.2257 -5.21572
lfingers 7.12502
lthumb 1.29362 24.7601
rfemur -13.7803 -2.656 19.6451
rtibia 20.2044
rfoot -12.5182 0.511152
rtoes 13.2172
lfemur -13.4859 6.96935 -18.0687
ltibia 17.4487
lfoot -9.18846 4.03369
ltoes -0.475605
511
root 0.621589 17.7456 6.90059 7.60388 -1.00856 -1.30457
lowerback -1.12151 0.0543264 -0.530118
upperback 2.99544 0.0374145 1.55996
thorax 3.70831 -0.0222238 1.90541
lowerneck -13.9972 -0.0747864 -1.50777
upperneck 29.3768 0.156872 0.460178
head 11.9491 -0.0395513 0.45486
rclavicle 1.98785e-016 -5.36719e-015
rhumerus -26.7108 -16.6892 -79.3356
rradius 23.3676
rwrist 34.3643
rhand -19.7298 -25.5003
rfingers 7.12502
rthumb 6.60067 -55.3775
lclavicle 1.98785e-016 -5.36719e-015
lhumerus -23.3084 7.56929 84.6937
lradius 15.7619
lwrist -1.50762
lhand -25.1947 -5.20342
lfingers 7.12502
lthumb 1.32356 24.7722
rfemur -13.7718 -2.66745 19.6483
rtibia 20.2115
rfoot -12.5214 0.51168
rtoes 13.1873
lfemur -13.4728 6.96932 -18.0653
ltibia 17.4497
lfoot -9.18576 4.0319
ltoes -0.465704
512
root 0.621386 17.7455 6.89961 7.58957 -1.00716 -1.30404
lowerback -1.1311 0.0429576 -0.539472
upperback 2.99373 0.0225413 1.559
thorax 3.71253 -0.0299119 1.90905
lowerneck -14.0041 -0.0701019 -1.49412
upperneck 29.3719 0.166606 0.438128
head 11.9485 -0.0365574 0.445606
rclavicle -6.95746e-016 6.75868e-015
rhumerus -26.7978 -16.7733 -79.2536
rradius 23.3129
rwrist 34.4531
rhand -19.7019 -25.4992
rfingers 7.12502
rthumb 6.62759 -55.3755
lclavicle -6.95746e-016 6.75868e-015
lhumerus -23.3165 7.58069 84.6741
lradius 15.7499
lwrist -1.56694
lhand -25.1474 -5.14993
lfingers 7.12502
lthumb 1.36922 24.8254
rfemur -13.7636 -2.67976 19.6497
rtibia 20.2184
rfoot -12.5239 0.511063
rtoes 13.1554
lfemur -13.46 6.96539 -18.063
ltibia 17.4494
lfoot -9.18137 4.0306
ltoes -0.450882
513
root 0.621218 17.7454 6.89868 7.5753 -1.00265 -1.3045
lowerback -1.13996 0.0319253 -0.545945
upperback 2.98938 0.00807159 1.55774
thorax 3.71359 -0.0372726 1.91077
lowerneck -14.0018 -0.0680281 -1.48415
upperneck 29.3665 0.172108 0.420374
head 11.9459 -0.0353044 0.437981
rclavicle 1.09332e-015 1.19271e-015
rhumerus -26.8883 -16.8553 -79.17
rradius 23.2641
rwrist 34.5316
rhand -19.6764 -25.4909
rfingers 7.12502
rthumb 6.65218 -55.3665
lclavicle 1.09332e-015 1.19271e-015
lhumerus -23.3229 7.57616 84.6594
lradius 15.7545
lwrist -1.59876
lhand -25.1055 -5.06959
lfingers 7.12502
lthumb 1.40966 24.9055
rfemur -13.7544 -2.69631 19.6518
rtibia 20.224
rfoot -12.5264 0.514107
rtoes 13.1288
lfemur -13.4476 6.95877 -18.0597
ltibia 17.4497
lfoot -9.17714 4.02934
ltoes -0.443577
514
root 0.621118 17.7452 6.89781 7.55906 -0.999123 -1.30778
lowerback -1.14505 0.0219024 -0.548755
upperback 2.98229 -0.00515872 1.55756
thorax 3.70962 -0.0438763 1.91158
lowerneck -13.9906 -0.0669546 -1.48029
upperneck 29.3607 0.176046 0.40798
head 11.9413 -0.034738 0.433182
rclavicle 6.95746e-015 6.55989e-015
rhumerus -26.9816 -16.93 -79.0857
rradius 23.2218
rwrist 34.6017
rhand -19.6506 -25.4815
rfingers 7.12502
rthumb 6.6771 -55.3563
lclavicle 6.95746e-015 6.55989e-015
lhumerus -23.3314 7.55941 84.6498
lradius 15.7766
lwrist -1.60399
lhand -25.0744 -4.96505
lfingers 7.12502
lthumb 1.43973 25.0098
rfemur -13.7415 -2.71219 19.6561
rtibia 20.2267
rfoot -12.5278 0.520943
rtoes 13.1172
lfemur -13.4343 6.95155 -18.0531
ltibia 17.4529
lfoot -9.17403 4.0301
ltoes -0.432078
515
root 0.621049 17.7449 6.897 7.5419 -0.994626 -1.31169
lowerback -1.14818 0.0121774 -0.550753
upperback 2.97435 -0.0180239 1.55807
thorax 3.70365 -0.0502667 1.91264
lowerneck -13.9789 -0.0660748 -1.47905
upperneck 29.3569 0.179735 0.397839
head 11.9374 -0.0342909 0.429652
rclavicle -2.48481e-015 -1.98785e-016
rhumerus -27.0712 -16.9971 -79.003
rradius 23.1824
rwrist 34.6649
rhand -19.6159 -25.479
rfingers 7.12502
rthumb 6.71061 -55.3526
lclavicle -2.48481e-015 -1.98785e-016
lhumerus -23.3386 7.53272 84.6455
lradius 15.8157
lwrist -1.58399
lhand -25.0571 -4.8586
lfingers 7.12502
lthumb 1.45641 25.1162
rfemur -13.7255 -2.73154 19.6606
rtibia 20.2262
rfoot -12.5291 0.532736
rtoes 13.1192
lfemur -13.4216 6.94364 -18.0458
ltibia 17.4588
lfoot -9.17405 4.03141
ltoes -0.424051
